# Unity3D Mesh Exporter
v -1.076413 1.291232 -4.729051
v -1.163443 1.372679 -4.735826
v -1.032592 1.392358 -4.730861
v -2.219308 1.525869 -3.067511
v -2.21752 1.665615 -3.139815
v -2.207526 1.571871 -3.299813
v -1.590559 -0.002077714 -2.990281
v -1.832999 -0.005559467 -2.82518
v -1.754455 -0.00288929 -3.024793
v -1.818787 2.091582 -2.916496
v -1.704197 2.092434 -2.912171
v -1.69637 2.094341 -3.083155
v 2.025496 1.385439 -4.096387
v 2.026407 1.50572 -4.129118
v 2.02126 1.425204 -4.004879
v 1.613608 1.485642 -4.564839
v 1.433139 1.495788 -4.578374
v 1.475778 1.564021 -4.579315
v 1.337373 2.108423 -3.99265
v 1.264157 2.107223 -3.927294
v 1.387752 2.106699 -3.914593
v 0.7982348 0.02513678 -1.992175
v 0.769345 0.02466723 -1.718689
v 1.003081 0.02813113 -1.878242
v 0.6805436 1.582662 -0.9512126
v 0.6953686 1.835315 -0.9465035
v 0.5587075 1.593937 -0.9595032
v 1.879096 1.565274 -1.701628
v 1.883124 1.705332 -1.734181
v 1.878738 1.653565 -1.630001
v -2.002565 1.779288 -4.710116
v 1.897679 1.80794 -3.703319
v 1.789702 1.809697 -1.983273
v -2.251024 1.41818 -2.640928
v -2.246037 1.737127 -2.68269
v -2.220448 1.437015 -3.068278
v -0.6803602 0.001984879 -3.958383
v -0.5932473 0.003982797 -4.025391
v -0.5754251 0.004004054 -3.892953
v 1.067077 2.108689 -2.090137
v 1.057486 2.108513 -2.193652
v 0.9913691 2.106499 -2.083362
v -0.03528395 2.000732 -2.730721
v -0.05546898 1.989389 -2.88547
v -0.2395518 1.995234 -2.88268
v -0.2985433 2.093881 -2.74111
v -0.01062983 2.096163 -2.716738
v -0.02757896 2.093905 -2.919519
v -0.2769127 2.09601 -2.983617
v -0.2985433 2.093881 -2.74111
v -0.01062983 2.096163 -2.716738
v -1.055115 1.666275 -1.04634
v -0.9452862 1.764999 -1.036148
v -0.8945029 1.550325 -1.037493
v -0.9580715 2.091202 -1.237145
v -0.8896308 2.091089 -1.199067
v -0.8700359 2.089714 -1.312817
v 0.3977985 0.01876442 -1.005779
v 0.3810468 2.021205 -0.9891166
v -0.6939316 2.009843 -1.049091
v 0.2512167 1.666943 -0.9118026
v 0.2477364 1.832983 -0.9099643
v 0.2434713 1.835216 -0.8351968
v 0.2535766 1.682786 -0.9393345
v 0.2497806 1.836698 -0.9378211
v 0.2567191 1.832653 -0.9704909
v 0.0753163 1.894112 -0.8445094
v 0.2414635 1.895059 -0.8392926
v 0.2474504 1.755464 -0.8397759
v -0.5015321 1.887197 -0.9551843
v -0.5862634 1.881427 -0.9612007
v -0.5910174 1.745461 -0.961855
v -0.7260339 0.0141781 -0.8448352
v 0.3582827 2.016138 -0.7934613
v -0.714246 2.006954 -0.8535239
v 0.5741602 1.084207 -0.8061872
v 1.579245 1.036936 -0.7460572
v 0.3921213 1.515613 -0.8188755
v 1.571325 2.025703 -0.7337593
v 1.584162 2.046797 -0.7293336
v 0.6848047 2.03957 -0.7849345
v 1.081438 2.106635 -0.1236514
v 1.116372 2.107796 -0.01187224
v 1.315809 2.1095 -0.182741
v 1.768559 1.83279 -0.1189262
v 1.765639 1.956525 -0.06062994
v 1.753913 1.801999 0.1870569
v 1.654014 2.108251 0.271402
v 1.448005 2.109998 0.2010541
v 1.437671 2.11044 -0.0630931
v 1.263851 1.582027 1.006174
v 1.503037 1.628946 1.017588
v 1.357972 1.787559 1.010359
v 1.701413 1.051147 1.023794
v 1.546052 1.070457 1.023582
v 1.720853 1.054585 0.7245257
v 1.83173 1.349537 0.6045506
v 1.877373 1.49937 0.6000123
v 1.765771 1.449468 0.6147467
v 1.819532 1.630904 0.1116967
v 1.928417 1.623174 0.1718752
v 1.856354 1.625661 0.4512923
v 1.883245 1.327813 -0.5212974
v 1.891809 1.491807 -0.5248775
v 1.986853 1.396141 -0.5027167
v 1.697797 0.5202637 0.6221095
v 1.944736 0.5212581 -0.1365244
v 1.782554 0.5198796 -0.5508924
v 1.783826 0.5205328 -0.5552387
v 1.697495 0.5191792 0.6201985
v 1.969345 0.5273945 0.5877379
v 2.045371 0.5328697 -0.4825213
v 1.783826 0.5205328 -0.5552387
v 1.697495 0.5191792 0.6201985
v 2.042674 0.5438296 -0.4613405
v 2.039502 1.583002 -0.4679517
v 1.965952 1.586029 0.5511261
v 1.97151 0.545812 0.5540761
v 2.042674 0.5438296 -0.4613405
v 2.039502 1.583002 -0.4679517
v 0.4684349 2.048783 0.9370076
v 1.370653 2.024716 0.9845624
v 1.372351 2.046556 0.9857159
v 0.1812537 0.01844779 0.912165
v -0.892705 2.004067 0.8448195
v 0.1851316 2.005356 0.9091786
v -3.816986 0.00850945 0.6548455
v -3.824206 1.98605 0.6630118
v -2.762291 1.991536 0.7336161
v -2.331156 1.418766 0.7907246
v -2.372579 1.567872 0.7919418
v -2.531655 1.443749 0.7796552
v -1.143096 2.084534 0.8392957
v -2.546237 2.085546 0.757937
v -2.545747 2.10404 0.7558611
v -0.8838794 2.022922 -0.8741488
v -2.290461 2.012686 -0.949363
v -2.288612 2.030816 -0.9446154
v -2.254094 2.087422 -0.1527308
v -0.9223783 2.085194 -0.06374164
v -0.8784695 2.075519 -0.8162026
v -0.9295503 2.078902 -0.7781572
v -2.159441 2.08368 -0.8519138
v -2.197606 2.088438 -0.2016896
v -1.03323 1.988985 -0.1188848
v -1.567214 1.001938 -0.1537254
v -1.530366 0.99779 -0.8036525
v -2.397249 1.488049 -0.9712542
v -2.345411 1.602845 -0.9680882
v -2.29162 1.424533 -0.964654
v -2.524764 1.571219 -1.174871
v -2.522477 1.665966 -1.208316
v -2.533468 1.654616 -1.091411
v -2.518943 1.700771 -0.9953938
v -2.50238 1.711039 -0.9865921
v -2.47351 1.71073 -0.9769853
v -2.52581 1.651013 -1.007819
v -2.52989 1.730672 -1.017687
v -2.518943 1.700771 -0.9953938
v -2.493618 1.614289 -0.9814081
v -2.52581 1.651013 -1.007819
v -2.52989 1.730672 -1.017687
v -2.485841 1.703951 -0.9804139
v -2.493618 1.614289 -0.9814081
v -2.52581 1.651013 -1.007819
v -2.425184 1.684477 -0.9738479
v -2.476217 1.764715 -0.9787906
v -2.485841 1.703951 -0.9804139
v -2.511442 1.793513 -0.9872454
v -2.507786 1.761712 -0.988018
v -2.485271 1.790768 -0.9799904
v -2.521746 1.765194 -1.001527
v -2.511442 1.793513 -0.9872454
v -2.507786 1.761712 -0.988018
v -2.526731 1.794462 -1.004892
v -2.521746 1.765194 -1.001527
v -2.511442 1.793513 -0.9872454
v -2.528006 1.77214 -1.013347
v -2.526731 1.794462 -1.004892
v -2.521746 1.765194 -1.001527
v -2.533156 1.79483 -1.018421
v -2.528006 1.77214 -1.013347
v -2.526731 1.794462 -1.004892
v -2.534838 1.770647 -1.039028
v -2.533156 1.79483 -1.018421
v -2.528006 1.77214 -1.013347
v -2.533754 1.796759 -1.057995
v -2.534838 1.770647 -1.039028
v -2.533156 1.79483 -1.018421
v -0.9125936 0.1138884 0.8619559
v -2.736995 0.00505203 0.7485071
v -2.742424 0.118144 0.7423494
v 1.687806 0.1436431 1.01958
v 0.1895892 0.1291735 0.9304684
v -0.9125936 0.1138884 0.8619559
v 1.696512 0.03271449 1.014494
v 1.687806 0.1436431 1.01958
v 0.1895892 0.1291735 0.9304684
v 1.798959 0.1479346 -0.7217497
v 1.696512 0.03271449 1.014494
v 1.687806 0.1436431 1.01958
v 0.3716953 0.1338283 -0.8072289
v 1.798959 0.1479346 -0.7217497
v 1.696512 0.03271449 1.014494
v 0.3759528 0.02312073 -0.8063232
v 0.3716953 0.1338283 -0.8072289
v 1.798959 0.1479346 -0.7217497
v -0.9256987 1.141562 0.8628349
v -0.9280819 1.272599 0.8594108
v -1.000267 1.267291 0.8559681
v -1.003606 1.269592 0.8558464
v -1.001229 1.139181 0.8587824
v -0.9256987 1.141562 0.8628349
v -0.9453945 1.816213 0.8656737
v -0.9490281 1.895204 0.8613763
v -1.024363 1.891943 0.8566111
v -1.022898 1.819932 0.8583938
v -0.9453945 1.816213 0.8656737
v -0.9490281 1.895204 0.8613763
v -1.834358 1.841043 0.6963629
v -1.846199 1.850131 0.6740404
v -1.86588 1.836255 0.7050136
v -1.67234 1.882557 0.7309059
v -1.663321 1.903415 0.7157131
v -1.681555 1.888587 0.6956459
v -1.779791 2.020128 0.6481129
v -1.782748 2.054295 0.6374282
v -1.810977 2.038097 0.6326156
v -1.800824 1.986676 0.6680296
v -1.845986 2.058362 0.6482196
v -1.745256 2.038097 0.6803935
v -1.718962 1.859693 0.7070205
v -1.661424 1.902243 0.7618898
v -1.685428 1.917266 0.6680175
v -1.860289 1.856797 0.7587114
v -1.892345 1.88451 0.6724203
v -1.815738 1.874732 0.6931332
v -1.729723 2.031324 0.8054707
v -1.886849 2.032444 0.7955304
v -1.794703 1.903296 0.7962796
v -3.217973 2.094487 -0.8037113
v -3.2472 2.09915 -0.6946897
v -3.133631 2.095454 -0.7173399
v -3.397882 2.003304 -1.568247
v -2.501932 2.075845 -1.514188
v -2.499431 2.011818 -1.516254
v -3.397802 2.092897 -1.56187
v -3.397882 2.003304 -1.568247
v -2.501932 2.075845 -1.514188
v -3.500523 1.795841 -1.574043
v -3.600211 1.924139 -1.578972
v -3.433002 1.916698 -1.566755
v -3.398231 1.870151 -1.616352
v -3.393974 1.84165 -1.654255
v -3.399543 1.778529 -1.617789
v -3.923979 0.8249779 -1.588769
v -3.989854 0.8080088 -0.2110086
v -4.032839 0.808457 -0.2105133
v -3.993951 0.7066458 -0.2123839
v -3.923979 0.8249779 -1.588769
v -3.989854 0.8080088 -0.2110086
v -3.876009 1.148151 0.6699772
v -3.870574 1.277924 0.6731088
v -3.944144 1.275355 0.6708314
v -3.946833 1.150726 0.6665851
v -3.876009 1.148151 0.6699772
v -3.870574 1.277924 0.6731088
v -5.344527 -0.1507336 -0.3154354
v -4.077122 0.8003165 -0.2266868
v -4.067514 0.8013967 -0.2759119
v -5.359461 -0.2944206 -0.3264399
v -5.344527 -0.1507336 -0.3154354
v -4.077122 0.8003165 -0.2266868
v -4.077716 0.676309 -0.2265714
v -5.359461 -0.2944206 -0.3264399
v -5.344527 -0.1507336 -0.3154354
v -6.228911 0.5840761 0.2870933
v -6.230216 0.7239862 0.3069015
v -6.222332 0.6268234 0.1932724
v -5.260224 0.9222044 0.5990494
v -5.488513 1.055502 0.5839918
v -5.62218 0.9591546 0.5779743
vn 0.04340473 -0.03667873 -0.9983841
vn 0.04340473 -0.03667873 -0.9983841
vn 0.04340473 -0.03667873 -0.9983841
vn -0.9984503 -0.01495911 -0.05360186
vn -0.9984503 -0.01495911 -0.05360186
vn -0.9984503 -0.01495911 -0.05360186
vn 0.007173548 -0.9999185 -0.01055303
vn 0.007173548 -0.9999185 -0.01055303
vn 0.007173548 -0.9999185 -0.01055303
vn -0.007838814 0.999911 0.01079668
vn -0.007838814 0.999911 0.01079668
vn -0.007838814 0.999911 0.01079668
vn 0.9990084 0.004486186 0.04429789
vn 0.9990084 0.004486186 0.04429789
vn 0.9990084 0.004486186 0.04429789
vn 0.07139879 -0.0583544 -0.9957394
vn 0.07139879 -0.0583544 -0.9957394
vn 0.07139879 -0.0583544 -0.9957394
vn 0.00211009 0.9997831 0.02071675
vn 0.00211009 0.9997831 0.02071675
vn 0.00211009 0.9997831 0.02071675
vn -0.01470677 0.9998919 0.0001631451
vn -0.01470677 0.9998919 0.0001631451
vn -0.01470677 0.9998919 0.0001631451
vn -0.06922081 -0.01453029 0.9974956
vn -0.06922081 -0.01453029 0.9974956
vn -0.06922081 -0.01453029 0.9974956
vn 0.9992763 -0.02143845 0.03141886
vn 0.9992763 -0.02143845 0.03141886
vn 0.9992763 -0.02143845 0.03141886
vn 0.006969447 -0.9999746 0.001459123
vn 0.006969447 -0.9999746 0.001459123
vn 0.006969447 -0.9999746 0.001459123
vn -0.9974504 0.006287422 -0.07108668
vn -0.9974504 0.006287422 -0.07108668
vn -0.9974504 0.006287422 -0.07108668
vn 0.0208907 -0.9997783 -0.002650815
vn 0.0208907 -0.9997783 -0.002650815
vn 0.0208907 -0.9997783 -0.002650815
vn -0.028833 0.9995838 0.0009677222
vn -0.028833 0.9995838 0.0009677222
vn -0.028833 0.9995838 0.0009677222
vn 0.03047636 0.9965635 -0.07702211
vn 0.03047636 0.9965635 -0.07702211
vn 0.03047636 0.9965635 -0.07702211
vn -0.007034838 0.9999197 -0.01054542
vn -0.007034838 0.9999197 -0.01054542
vn -0.007034838 0.9999197 -0.01054542
vn -0.008605832 0.9999309 0.008012231
vn -0.008605832 0.9999309 0.008012231
vn -0.008605832 0.9999309 0.008012231
vn 0.07167904 0.02320132 -0.9971579
vn 0.07167904 0.02320132 -0.9971579
vn 0.07167904 0.02320132 -0.9971579
vn 0.007633626 0.9999127 -0.01077778
vn 0.007633626 0.9999127 -0.01077778
vn 0.007633626 0.9999127 -0.01077778
vn -0.05561024 -0.008773012 0.998414
vn -0.05561024 -0.008773012 0.998414
vn -0.05561024 -0.008773012 0.998414
vn 0.9982055 0.02029916 0.05633527
vn 0.9982055 0.02029916 0.05633527
vn 0.9982055 0.02029916 0.05633527
vn -0.9784961 -0.02211654 -0.2050763
vn -0.9784961 -0.02211654 -0.2050763
vn -0.9784961 -0.02211654 -0.2050763
vn 0.03135534 0.004805449 -0.9994968
vn 0.03135534 0.004805449 -0.9994968
vn 0.03135534 0.004805449 -0.9994968
vn -0.07066968 -0.00232913 0.9974971
vn -0.07066968 -0.00232913 0.9974971
vn -0.07066968 -0.00232913 0.9974971
vn -0.05595268 0.004684164 0.9984224
vn -0.05595268 0.004684164 0.9984224
vn -0.05595268 0.004684164 0.9984224
vn -0.05951967 0.004243734 0.9982181
vn -0.05951967 0.004243734 0.9982181
vn -0.05951967 0.004243734 0.9982181
vn -0.05944234 -0.1702004 0.983615
vn -0.05944234 -0.1702004 0.983615
vn -0.05944234 -0.1702004 0.983615
vn -0.01375486 0.9998869 -0.006083252
vn -0.01375486 0.9998869 -0.006083252
vn -0.01375486 0.9998869 -0.006083252
vn 0.9988512 0.000995339 0.04790918
vn 0.9988512 0.000995339 0.04790918
vn 0.9988512 0.000995339 0.04790918
vn -0.008015607 -0.9999669 -0.001361592
vn -0.008015607 -0.9999669 -0.001361592
vn -0.008015607 -0.9999669 -0.001361592
vn -0.04798737 0.001636446 0.9988465
vn -0.04798737 0.001636446 0.9988465
vn -0.04798737 0.001636446 0.9988465
vn -0.1232972 -0.9921801 -0.01940665
vn -0.1232972 -0.9921801 -0.01940665
vn -0.1232972 -0.9921801 -0.01940665
vn 0.1358851 -0.01138829 0.9906592
vn 0.1358851 -0.01138829 0.9906592
vn 0.1358851 -0.01138829 0.9906592
vn -0.06629337 -0.9977664 -0.008217286
vn -0.06629337 -0.9977664 -0.008217286
vn -0.06629337 -0.9977664 -0.008217286
vn 0.1966248 -0.03166191 -0.9799675
vn 0.1966248 -0.03166191 -0.9799675
vn 0.1966248 -0.03166191 -0.9799675
vn -0.006468405 0.9999788 -0.0007947689
vn -0.006468405 0.9999788 -0.0007947689
vn -0.006468405 0.9999788 -0.0007947689
vn -0.03033471 0.9995392 -0.001076894
vn -0.03033471 0.9995392 -0.001076894
vn -0.03033471 0.9995392 -0.001076894
vn -0.04648883 0.9989161 -0.002264061
vn -0.04648883 0.9989161 -0.002264061
vn -0.04648883 0.9989161 -0.002264061
vn 0.9974002 0.003502773 0.0719754
vn 0.9974002 0.003502773 0.0719754
vn 0.9974002 0.003502773 0.0719754
vn 0.9975476 0.003490057 0.06990499
vn 0.9975476 0.003490057 0.06990499
vn 0.9975476 0.003490057 0.06990499
vn -0.05386366 -0.04849041 0.9973702
vn -0.05386366 -0.04849041 0.9973702
vn -0.05386366 -0.04849041 0.9973702
vn 0.05960696 -0.001616718 -0.9982206
vn 0.05960696 -0.001616718 -0.9982206
vn 0.05960696 -0.001616718 -0.9982206
vn 0.06631814 0.004362551 -0.997789
vn 0.06631814 0.004362551 -0.997789
vn 0.06631814 0.004362551 -0.997789
vn -0.05812728 -0.02429459 0.9980136
vn -0.05812728 -0.02429459 0.9980136
vn -0.05812728 -0.02429459 0.9980136
vn 0.05743505 -0.1128661 -0.9919487
vn 0.05743505 -0.1128661 -0.9919487
vn 0.05743505 -0.1128661 -0.9919487
vn 0.049924 0.2482373 -0.9674119
vn 0.049924 0.2482373 -0.9674119
vn 0.049924 0.2482373 -0.9674119
vn 0.002522197 0.999916 -0.01270959
vn 0.002522197 0.999916 -0.01270959
vn 0.002522197 0.999916 -0.01270959
vn 0.004308739 0.9999658 -0.007064505
vn 0.004308739 0.9999658 -0.007064505
vn 0.004308739 0.9999658 -0.007064505
vn 0.8775333 -0.4766006 0.05279264
vn 0.8775333 -0.4766006 0.05279264
vn 0.8775333 -0.4766006 0.05279264
vn 0.06206419 -0.0004995609 -0.998072
vn 0.06206419 -0.0004995609 -0.998072
vn 0.06206419 -0.0004995609 -0.998072
vn 0.995482 0.009333908 0.09449111
vn 0.995482 0.009333908 0.09449111
vn 0.995482 0.009333908 0.09449111
vn 0.3052865 0.286104 -0.9082646
vn 0.3052865 0.286104 -0.9082646
vn 0.3052865 0.286104 -0.9082646
vn 0.8920559 -0.01027901 -0.4518083
vn 0.8920559 -0.01027901 -0.4518083
vn 0.8920559 -0.01027901 -0.4518083
vn 0.5835354 -0.07033102 -0.8090366
vn 0.5835354 -0.07033102 -0.8090366
vn 0.5835354 -0.07033102 -0.8090366
vn 0.6035391 -0.04352415 -0.7961445
vn 0.6035391 -0.04352415 -0.7961445
vn 0.6035391 -0.04352415 -0.7961445
vn -0.1104866 -0.009051055 0.9938363
vn -0.1104866 -0.009051055 0.9938363
vn -0.1104866 -0.009051055 0.9938363
vn -0.2720633 -0.05461877 0.960728
vn -0.2720633 -0.05461877 0.960728
vn -0.2720633 -0.05461877 0.960728
vn 0.704573 0.0980743 -0.7028217
vn 0.704573 0.0980743 -0.7028217
vn 0.704573 0.0980743 -0.7028217
vn -0.7561134 -0.05380561 0.652225
vn -0.7561134 -0.05380561 0.652225
vn -0.7561134 -0.05380561 0.652225
vn 0.9031615 0.1060129 -0.4160056
vn 0.9031615 0.1060129 -0.4160056
vn 0.9031615 0.1060129 -0.4160056
vn -0.8990702 -0.1092565 0.4239525
vn -0.8990702 -0.1092565 0.4239525
vn -0.8990702 -0.1092565 0.4239525
vn 0.9520289 0.1574001 -0.2624238
vn 0.9520289 0.1574001 -0.2624238
vn 0.9520289 0.1574001 -0.2624238
vn -0.9983661 0.05431527 0.01775061
vn -0.9983661 0.05431527 0.01775061
vn -0.9983661 0.05431527 0.01775061
vn 0.06502186 -0.05114083 -0.9965726
vn 0.06502186 -0.05114083 -0.9965726
vn 0.06502186 -0.05114083 -0.9965726
vn -0.04492781 -0.5367811 0.8425245
vn -0.04492781 -0.5367811 0.8425245
vn -0.04492781 -0.5367811 0.8425245
vn -0.05881388 -0.05032486 0.9969997
vn -0.05881388 -0.05032486 0.9969997
vn -0.05881388 -0.05032486 0.9969997
vn -0.9951329 -0.07517779 -0.06370666
vn -0.9951329 -0.07517779 -0.06370666
vn -0.9951329 -0.07517779 -0.06370666
vn 0.01377821 -0.997764 -0.06540035
vn 0.01377821 -0.997764 -0.06540035
vn 0.01377821 -0.997764 -0.06540035
vn 0.05983992 -0.005865439 -0.9981908
vn 0.05983992 -0.005865439 -0.9981908
vn 0.05983992 -0.005865439 -0.9981908
vn -0.04947049 0.02519142 0.9984578
vn -0.04947049 0.02519142 0.9984578
vn -0.04947049 0.02519142 0.9984578
vn -0.05424016 0.0214867 0.9982967
vn -0.05424016 0.0214867 0.9982967
vn -0.05424016 0.0214867 0.9982967
vn -0.06525224 0.05121315 0.9965537
vn -0.06525224 0.05121315 0.9965537
vn -0.06525224 0.05121315 0.9965537
vn -0.09102592 0.04992107 0.9945965
vn -0.09102592 0.04992107 0.9945965
vn -0.09102592 0.04992107 0.9945965
vn -0.03224511 0.9196064 0.3915153
vn -0.03224511 0.9196064 0.3915153
vn -0.03224511 0.9196064 0.3915153
vn -0.777868 0.5533255 0.2979133
vn -0.777868 0.5533255 0.2979133
vn -0.777868 0.5533255 0.2979133
vn -0.3053817 0.2600321 0.9160379
vn -0.3053817 0.2600321 0.9160379
vn -0.3053817 0.2600321 0.9160379
vn 0.288215 -0.08206809 -0.9540423
vn 0.288215 -0.08206809 -0.9540423
vn 0.288215 -0.08206809 -0.9540423
vn -0.7309671 0.6195563 0.2860718
vn -0.7309671 0.6195563 0.2860718
vn -0.7309671 0.6195563 0.2860718
vn -0.04335721 -0.9557846 -0.2908538
vn -0.04335721 -0.9557846 -0.2908538
vn -0.04335721 -0.9557846 -0.2908538
vn -0.06336807 -0.03942773 0.9972111
vn -0.06336807 -0.03942773 0.9972111
vn -0.06336807 -0.03942773 0.9972111
vn 0.02534497 0.9990326 -0.03593746
vn 0.02534497 0.9990326 -0.03593746
vn 0.02534497 0.9990326 -0.03593746
vn 0.05741341 0.03444741 -0.997756
vn 0.05741341 0.03444741 -0.997756
vn 0.05741341 0.03444741 -0.997756
vn -0.05436084 -0.07084433 0.996005
vn -0.05436084 -0.07084433 0.996005
vn -0.05436084 -0.07084433 0.996005
vn 0.07369805 0.01895716 -0.9971005
vn 0.07369805 0.01895716 -0.9971005
vn 0.07369805 0.01895716 -0.9971005
vn -0.9922038 0.01614444 -0.1235762
vn -0.9922038 0.01614444 -0.1235762
vn -0.9922038 0.01614444 -0.1235762
vn -0.0105723 -0.9998619 -0.01282021
vn -0.0105723 -0.9998619 -0.01282021
vn -0.0105723 -0.9998619 -0.01282021
vn 0.9980435 -0.04098751 0.04721442
vn 0.9980435 -0.04098751 0.04721442
vn 0.9980435 -0.04098751 0.04721442
vn -0.03013506 -0.02285233 0.9992846
vn -0.03013506 -0.02285233 0.9992846
vn -0.03013506 -0.02285233 0.9992846
vn -0.04862856 -0.0220606 0.9985732
vn -0.04862856 -0.0220606 0.9985732
vn -0.04862856 -0.0220606 0.9985732
vn -0.5928935 0.7992737 -0.0981769
vn -0.5928935 0.7992737 -0.0981769
vn -0.5928935 0.7992737 -0.0981769
vn 0.01357651 0.07495271 -0.9970946
vn 0.01357651 0.07495271 -0.9970946
vn 0.01357651 0.07495271 -0.9970946
vn 0.02155031 0.07411801 -0.9970167
vn 0.02155031 0.07411801 -0.9970167
vn 0.02155031 0.07411801 -0.9970167
vn -0.997568 0.0005657928 -0.06969888
vn -0.997568 0.0005657928 -0.06969888
vn -0.997568 0.0005657928 -0.06969888
vn -0.05648965 0.01602204 0.9982746
vn -0.05648965 0.01602204 0.9982746
vn -0.05648965 0.01602204 0.9982746
f 1/1/1 2/2/2 3/3/3
f 4/4/4 5/5/5 6/6/6
f 7/7/7 8/8/8 9/9/9
f 10/10/10 11/11/11 12/12/12
f 13/13/13 14/14/14 15/15/15
f 16/16/16 17/17/17 18/18/18
f 19/19/19 20/20/20 21/21/21
f 22/22/22 23/23/23 24/24/24
f 25/25/25 26/26/26 27/27/27
f 28/28/28 29/29/29 30/30/30
f 31/31/31 32/32/32 33/33/33
f 34/34/34 35/35/35 36/36/36
f 37/37/37 38/38/38 39/39/39
f 40/40/40 41/41/41 42/42/42
f 43/43/43 44/44/44 45/45/45
f 46/46/46 47/47/47 48/48/48
f 49/49/49 50/50/50 51/51/51
f 52/52/52 53/53/53 54/54/54
f 55/55/55 56/56/56 57/57/57
f 58/58/58 59/59/59 60/60/60
f 61/61/61 62/62/62 63/63/63
f 64/64/64 65/65/65 66/66/66
f 67/67/67 68/68/68 69/69/69
f 70/70/70 71/71/71 72/72/72
f 73/73/73 74/74/74 75/75/75
f 76/76/76 77/77/77 78/78/78
f 79/79/79 80/80/80 81/81/81
f 82/82/82 83/83/83 84/84/84
f 85/85/85 86/86/86 87/87/87
f 88/88/88 89/89/89 90/90/90
f 91/91/91 92/92/92 93/93/93
f 94/94/94 95/95/95 96/96/96
f 97/97/97 98/98/98 99/99/99
f 100/100/100 101/101/101 102/102/102
f 103/103/103 104/104/104 105/105/105
f 106/106/106 107/107/107 108/108/108
f 109/109/109 110/110/110 111/111/111
f 112/112/112 113/113/113 114/114/114
f 115/115/115 116/116/116 117/117/117
f 118/118/118 119/119/119 120/120/120
f 121/121/121 122/122/122 123/123/123
f 124/124/124 125/125/125 126/126/126
f 127/127/127 128/128/128 129/129/129
f 130/130/130 131/131/131 132/132/132
f 133/133/133 134/134/134 135/135/135
f 136/136/136 137/137/137 138/138/138
f 139/139/139 140/140/140 141/141/141
f 142/142/142 143/143/143 144/144/144
f 145/145/145 146/146/146 147/147/147
f 148/148/148 149/149/149 150/150/150
f 151/151/151 152/152/152 153/153/153
f 154/154/154 155/155/155 156/156/156
f 157/157/157 158/158/158 159/159/159
f 160/160/160 161/161/161 162/162/162
f 163/163/163 164/164/164 165/165/165
f 166/166/166 167/167/167 168/168/168
f 169/169/169 170/170/170 171/171/171
f 172/172/172 173/173/173 174/174/174
f 175/175/175 176/176/176 177/177/177
f 178/178/178 179/179/179 180/180/180
f 181/181/181 182/182/182 183/183/183
f 184/184/184 185/185/185 186/186/186
f 187/187/187 188/188/188 189/189/189
f 190/190/190 191/191/191 192/192/192
f 193/193/193 194/194/194 195/195/195
f 196/196/196 197/197/197 198/198/198
f 199/199/199 200/200/200 201/201/201
f 202/202/202 203/203/203 204/204/204
f 205/205/205 206/206/206 207/207/207
f 208/208/208 209/209/209 210/210/210
f 211/211/211 212/212/212 213/213/213
f 214/214/214 215/215/215 216/216/216
f 217/217/217 218/218/218 219/219/219
f 220/220/220 221/221/221 222/222/222
f 223/223/223 224/224/224 225/225/225
f 226/226/226 227/227/227 228/228/228
f 229/229/229 230/230/230 231/231/231
f 232/232/232 233/233/233 234/234/234
f 235/235/235 236/236/236 237/237/237
f 238/238/238 239/239/239 240/240/240
f 241/241/241 242/242/242 243/243/243
f 244/244/244 245/245/245 246/246/246
f 247/247/247 248/248/248 249/249/249
f 250/250/250 251/251/251 252/252/252
f 253/253/253 254/254/254 255/255/255
f 256/256/256 257/257/257 258/258/258
f 259/259/259 260/260/260 261/261/261
f 262/262/262 263/263/263 264/264/264
f 265/265/265 266/266/266 267/267/267
f 268/268/268 269/269/269 270/270/270
f 271/271/271 272/272/272 273/273/273
f 274/274/274 275/275/275 276/276/276
f 277/277/277 278/278/278 279/279/279
f 280/280/280 281/281/281 282/282/282
