# Blender 4.1.1
# www.blender.org
mtllib BlackTable.mtl
o BlackTable
v 0.813984 0.734638 0.304655
v 2.015051 0.727837 0.296259
v 2.004812 0.715288 -0.501007
v 2.003004 0.710877 -0.501254
v 0.807715 0.733107 -0.486568
v 0.812539 0.734311 0.303322
v 0.806262 0.708612 0.302092
v 2.011323 0.691832 -0.495542
v 2.005603 0.699275 0.303150
v 0.806877 0.695830 -0.492153
v 0.806262 0.708612 0.302092
v 2.011323 0.691832 -0.495542
v 1.928705 0.456167 0.263756
v 1.913258 0.568614 0.244173
v 1.913853 0.649241 0.222498
v 1.954830 0.371618 0.259278
v 1.912506 0.451846 0.246168
v 1.916014 0.524507 0.222058
v 1.965621 0.152409 0.222306
v 1.926651 0.250209 0.263865
v 1.971306 0.308876 0.217787
v 1.914163 -0.004546 0.219142
v 1.978310 -0.002018 0.240858
v 1.965550 -0.004730 0.216727
v 2.088128 -0.002689 0.255157
v 2.032086 -0.003364 0.110420
v 2.188787 -0.005460 0.153763
v 1.915503 0.505805 -0.407760
v 1.910987 0.543429 -0.415800
v 1.959296 0.559399 -0.406059
v 1.950702 0.431106 -0.402654
v 1.911892 0.463610 -0.436339
v 1.952172 0.494274 -0.402578
v 1.950232 0.357531 -0.401460
v 1.908974 0.397148 -0.413522
v 1.920277 0.429601 -0.447880
v 1.965864 0.197726 -0.413664
v 1.924239 0.223240 -0.398682
v 1.922386 0.287549 -0.447196
v 1.942976 -0.011496 -0.388469
v 1.908796 0.117005 -0.424044
v 1.959213 0.154736 -0.398894
v 0.871743 0.660780 0.211688
v 0.847778 0.660151 0.236748
v 0.856911 0.668044 0.260464
v 0.857707 0.528779 0.264247
v 0.854015 0.577187 0.220576
v 0.876761 0.590811 0.212441
v 0.889450 0.349731 0.220113
v 0.855808 0.445549 0.220242
v 0.849965 0.442136 0.256627
v 0.845033 0.100353 0.259523
v 0.848600 0.270642 0.234076
v 0.881426 0.324923 0.215283
v 0.835338 -0.001493 0.243702
v 0.857864 -0.003302 0.213916
v 0.869242 0.042041 0.218446
v 0.852772 0.559705 -0.446331
v 0.871712 0.623567 -0.392603
v 0.849074 0.691631 -0.434985
v 0.850709 0.423037 -0.400643
v 0.848703 0.436608 -0.444452
v 0.865037 0.504966 -0.392456
v 0.839518 0.246489 -0.420275
v 0.861933 0.338926 -0.447289
v 0.879422 0.340982 -0.394763
v 0.871288 0.139749 -0.390353
v 0.840541 0.159528 -0.411007
v 0.854970 0.179505 -0.443846
v 0.871557 -0.003692 -0.386582
v 0.836064 -0.007377 -0.400492
v 0.839619 -0.006963 -0.444695
v 0.847557 -0.000095 0.265629
v 0.844658 -0.002272 0.230677
v 0.909924 -0.005407 0.230102
v 1.967767 -0.005610 0.227741
v 1.939457 -0.002789 0.276048
v 1.891049 -0.008040 0.250836
v 1.971395 -0.009601 -0.418832
v 1.950574 -0.011010 -0.393136
v 1.916832 -0.009719 -0.395230
v 0.807772 0.692547 0.299867
v 0.807772 0.732652 0.299867
v 0.807772 0.692547 -0.495001
v 0.807772 0.732652 -0.495001
v 2.008409 0.692547 0.299867
v 2.008409 0.732652 0.299867
v 2.008409 0.692547 -0.495001
v 2.008409 0.732652 -0.495001
v 0.854413 0.698307 -0.383627
v 0.854413 -0.000447 -0.383626
v 0.848218 0.698307 -0.384237
v 0.848218 -0.000447 -0.384237
v 0.842260 0.698307 -0.386044
v 0.842260 -0.000447 -0.386044
v 0.836769 0.698307 -0.388979
v 0.836769 -0.000447 -0.388979
v 0.831956 0.698307 -0.392929
v 0.831956 -0.000447 -0.392929
v 0.828007 0.698307 -0.397741
v 0.828007 -0.000447 -0.397741
v 0.825072 0.698307 -0.403232
v 0.825072 -0.000447 -0.403232
v 0.823265 0.698307 -0.409190
v 0.823265 -0.000447 -0.409190
v 0.822654 0.698307 -0.415386
v 0.822654 -0.000447 -0.415386
v 0.823264 0.698307 -0.421582
v 0.823264 -0.000447 -0.421582
v 0.825072 0.698307 -0.427539
v 0.825072 -0.000447 -0.427539
v 0.828007 0.698307 -0.433030
v 0.828007 -0.000447 -0.433030
v 0.831956 0.698307 -0.437843
v 0.831956 -0.000447 -0.437843
v 0.836769 0.698307 -0.441792
v 0.836769 -0.000447 -0.441792
v 0.842260 0.698307 -0.444727
v 0.842260 -0.000447 -0.444727
v 0.848218 0.698307 -0.446535
v 0.848218 -0.000447 -0.446535
v 0.854413 0.698307 -0.447145
v 0.854413 -0.000447 -0.447145
v 0.860609 0.698307 -0.446535
v 0.860609 -0.000447 -0.446535
v 0.866567 0.698307 -0.444727
v 0.866567 -0.000447 -0.444727
v 0.872058 0.698307 -0.441792
v 0.872058 -0.000447 -0.441792
v 0.876871 0.698307 -0.437843
v 0.876871 -0.000447 -0.437843
v 0.880820 0.698307 -0.433030
v 0.880820 -0.000447 -0.433030
v 0.883755 0.698307 -0.427539
v 0.883755 -0.000447 -0.427539
v 0.885562 0.698307 -0.421582
v 0.885562 -0.000447 -0.421582
v 0.886173 0.698307 -0.415386
v 0.886173 -0.000447 -0.415386
v 0.885562 0.698307 -0.409190
v 0.885562 -0.000447 -0.409190
v 0.883755 0.698307 -0.403232
v 0.883755 -0.000447 -0.403232
v 0.880820 0.698307 -0.397741
v 0.880820 -0.000447 -0.397741
v 0.876871 0.698307 -0.392929
v 0.876871 -0.000447 -0.392929
v 0.872058 0.698307 -0.388979
v 0.872058 -0.000447 -0.388979
v 0.866567 0.698307 -0.386044
v 0.866567 -0.000447 -0.386044
v 0.860609 0.698307 -0.384237
v 0.860609 -0.000447 -0.384237
v 1.943728 -0.000447 -0.389029
v 1.943728 0.698307 -0.389029
v 1.949686 -0.000447 -0.390836
v 1.949686 0.698307 -0.390836
v 1.955177 -0.000447 -0.393771
v 1.955177 0.698307 -0.393771
v 1.959989 -0.000447 -0.397721
v 1.959989 0.698307 -0.397721
v 1.963939 -0.000447 -0.402533
v 1.963939 0.698307 -0.402533
v 1.966874 -0.000447 -0.408024
v 1.966874 0.698307 -0.408024
v 1.968681 -0.000447 -0.413982
v 1.968681 0.698307 -0.413982
v 1.969291 -0.000447 -0.420178
v 1.969291 0.698307 -0.420178
v 1.968681 -0.000447 -0.426374
v 1.968681 0.698307 -0.426374
v 1.966874 -0.000447 -0.432331
v 1.966874 0.698307 -0.432331
v 1.963939 -0.000447 -0.437822
v 1.963939 0.698307 -0.437822
v 1.959989 -0.000447 -0.442635
v 1.959989 0.698307 -0.442635
v 1.955177 -0.000447 -0.446585
v 1.955177 0.698307 -0.446585
v 1.949686 -0.000447 -0.449519
v 1.949686 0.698307 -0.449519
v 1.943728 -0.000447 -0.451327
v 1.943728 0.698307 -0.451327
v 1.937532 -0.000447 -0.451937
v 1.937532 0.698307 -0.451937
v 1.931336 -0.000447 -0.451327
v 1.931336 0.698307 -0.451327
v 1.925379 -0.000447 -0.449519
v 1.925379 0.698307 -0.449519
v 1.919888 -0.000447 -0.446585
v 1.919888 0.698307 -0.446585
v 1.915075 -0.000447 -0.442635
v 1.915075 0.698307 -0.442635
v 1.911125 -0.000447 -0.437822
v 1.911125 0.698307 -0.437822
v 1.908190 -0.000447 -0.432331
v 1.908190 0.698307 -0.432331
v 1.906383 -0.000447 -0.426374
v 1.906383 0.698307 -0.426374
v 1.905773 -0.000447 -0.420178
v 1.905773 0.698307 -0.420178
v 1.906383 -0.000447 -0.413982
v 1.906383 0.698307 -0.413982
v 1.908190 -0.000447 -0.408024
v 1.908190 0.698307 -0.408024
v 1.911125 -0.000447 -0.402533
v 1.911125 0.698307 -0.402533
v 1.915075 -0.000447 -0.397721
v 1.915075 0.698307 -0.397721
v 1.919888 -0.000447 -0.393771
v 1.919888 0.698307 -0.393771
v 1.925378 -0.000447 -0.390836
v 1.925379 0.698307 -0.390836
v 1.931336 -0.000447 -0.389029
v 1.931336 0.698307 -0.389029
v 1.937532 -0.000447 -0.388419
v 1.937532 0.698307 -0.388419
v 0.862605 0.698307 0.268737
v 0.862605 -0.000448 0.268737
v 0.856409 0.698307 0.268127
v 0.856409 -0.000448 0.268127
v 0.850451 0.698307 0.266320
v 0.850451 -0.000448 0.266320
v 0.844960 0.698307 0.263385
v 0.844960 -0.000448 0.263385
v 0.840148 0.698307 0.259435
v 0.840148 -0.000448 0.259435
v 0.836198 0.698307 0.254623
v 0.836198 -0.000448 0.254622
v 0.833263 0.698307 0.249132
v 0.833263 -0.000448 0.249132
v 0.831456 0.698307 0.243174
v 0.831456 -0.000448 0.243174
v 0.830846 0.698307 0.236978
v 0.830846 -0.000448 0.236978
v 0.831456 0.698307 0.230782
v 0.831456 -0.000448 0.230782
v 0.833263 0.698307 0.224824
v 0.833263 -0.000448 0.224824
v 0.836198 0.698307 0.219334
v 0.836198 -0.000448 0.219334
v 0.840148 0.698307 0.214521
v 0.840148 -0.000448 0.214521
v 0.844960 0.698307 0.210571
v 0.844960 -0.000448 0.210571
v 0.850451 0.698307 0.207636
v 0.850451 -0.000448 0.207636
v 0.856409 0.698307 0.205829
v 0.856409 -0.000448 0.205829
v 0.862605 0.698307 0.205219
v 0.862605 -0.000448 0.205219
v 0.868801 0.698307 0.205829
v 0.868801 -0.000448 0.205829
v 0.874758 0.698307 0.207636
v 0.874758 -0.000448 0.207636
v 0.880249 0.698307 0.210571
v 0.880249 -0.000448 0.210571
v 0.885062 0.698307 0.214521
v 0.885062 -0.000448 0.214521
v 0.889012 0.698307 0.219334
v 0.889012 -0.000448 0.219334
v 0.891946 0.698307 0.224824
v 0.891946 -0.000448 0.224824
v 0.893754 0.698307 0.230782
v 0.893754 -0.000448 0.230782
v 0.894364 0.698307 0.236978
v 0.894364 -0.000448 0.236978
v 0.893754 0.698307 0.243174
v 0.893754 -0.000448 0.243174
v 0.891946 0.698307 0.249132
v 0.891946 -0.000448 0.249132
v 0.889011 0.698307 0.254623
v 0.889011 -0.000448 0.254623
v 0.885062 0.698307 0.259435
v 0.885062 -0.000448 0.259435
v 0.880249 0.698307 0.263385
v 0.880249 -0.000448 0.263385
v 0.874758 0.698307 0.266320
v 0.874758 -0.000448 0.266320
v 0.868801 0.698307 0.268127
v 0.868801 -0.000448 0.268127
v 1.943728 -0.000447 0.274267
v 1.943728 0.698307 0.274267
v 1.949686 -0.000447 0.272460
v 1.949686 0.698307 0.272460
v 1.955177 -0.000447 0.269525
v 1.955177 0.698307 0.269525
v 1.959989 -0.000447 0.265576
v 1.959989 0.698307 0.265576
v 1.963939 -0.000447 0.260763
v 1.963939 0.698307 0.260763
v 1.966874 -0.000447 0.255272
v 1.966874 0.698307 0.255272
v 1.968681 -0.000447 0.249314
v 1.968681 0.698307 0.249314
v 1.969291 -0.000447 0.243118
v 1.969291 0.698307 0.243119
v 1.968681 -0.000447 0.236923
v 1.968681 0.698307 0.236923
v 1.966874 -0.000447 0.230965
v 1.966874 0.698307 0.230965
v 1.963939 -0.000447 0.225474
v 1.963939 0.698307 0.225474
v 1.959989 -0.000447 0.220661
v 1.959989 0.698307 0.220661
v 1.955177 -0.000447 0.216712
v 1.955177 0.698307 0.216712
v 1.949686 -0.000447 0.213777
v 1.949686 0.698307 0.213777
v 1.943728 -0.000447 0.211970
v 1.943728 0.698307 0.211970
v 1.937532 -0.000447 0.211359
v 1.937532 0.698307 0.211359
v 1.931336 -0.000447 0.211970
v 1.931336 0.698307 0.211970
v 1.925379 -0.000447 0.213777
v 1.925378 0.698307 0.213777
v 1.919888 -0.000447 0.216712
v 1.919888 0.698307 0.216712
v 1.915075 -0.000447 0.220661
v 1.915075 0.698307 0.220661
v 1.911125 -0.000447 0.225474
v 1.911125 0.698307 0.225474
v 1.908190 -0.000447 0.230965
v 1.908190 0.698307 0.230965
v 1.906383 -0.000447 0.236923
v 1.906383 0.698307 0.236923
v 1.905773 -0.000447 0.243118
v 1.905773 0.698307 0.243119
v 1.906383 -0.000447 0.249314
v 1.906383 0.698307 0.249314
v 1.908190 -0.000447 0.255272
v 1.908190 0.698307 0.255272
v 1.911125 -0.000447 0.260763
v 1.911125 0.698307 0.260763
v 1.915075 -0.000447 0.265576
v 1.915075 0.698307 0.265576
v 1.919888 -0.000447 0.269525
v 1.919888 0.698307 0.269525
v 1.925379 -0.000447 0.272460
v 1.925378 0.698307 0.272460
v 1.931336 -0.000447 0.274267
v 1.931336 0.698307 0.274267
v 1.937532 -0.000447 0.274878
v 1.937532 0.698307 0.274878
vn 0.0056 0.9999 -0.0158
vn 0.0186 0.9998 -0.0016
vn -0.0078 -0.9999 0.0093
vn 0.0033 0.9999 -0.0161
vn -0.5344 -0.2157 -0.8172
vn -0.2685 -0.2917 -0.9181
vn -0.7221 0.0063 -0.6918
vn -0.0016 0.9938 -0.1108
vn -0.0164 -0.9998 0.0110
vn 0.2495 -0.1736 -0.9527
vn 0.6486 -0.0142 -0.7610
vn -0.3790 -0.6073 -0.6983
vn -0.5512 -0.5126 -0.6584
vn 0.5047 -0.1030 -0.8571
vn -0.2517 0.9432 -0.2170
vn 0.1295 -0.6587 -0.7411
vn 0.9283 0.3257 0.1796
vn -0.3165 -0.1337 -0.9391
vn 0.7646 -0.2512 0.5935
vn -0.9171 -0.0596 0.3941
vn 0.9821 -0.1622 -0.0952
vn 0.9072 -0.3048 -0.2901
vn -0.1476 -0.8148 -0.5606
vn 0.1036 -0.9946 -0.0010
vn -0.0473 -0.9967 0.0660
vn 0.0594 -0.9939 0.0929
vn -0.0331 -0.9961 -0.0814
vn -1.0000 -0.0000 -0.0000
vn -0.0000 -0.0000 -1.0000
vn 1.0000 -0.0000 -0.0000
vn -0.0000 -0.0000 1.0000
vn -0.0000 -1.0000 -0.0000
vn -0.0000 1.0000 -0.0000
vn 0.0980 -0.0000 -0.9952
vn 0.2903 -0.0000 -0.9569
vn 0.4714 -0.0000 -0.8819
vn 0.6344 -0.0000 -0.7730
vn 0.7730 -0.0000 -0.6344
vn 0.8819 -0.0000 -0.4714
vn 0.9569 -0.0000 -0.2903
vn 0.9952 -0.0000 -0.0980
vn 0.9952 -0.0000 0.0980
vn 0.9569 -0.0000 0.2903
vn 0.8819 -0.0000 0.4714
vn 0.7730 -0.0000 0.6344
vn 0.6344 -0.0000 0.7730
vn 0.4714 -0.0000 0.8819
vn 0.2903 -0.0000 0.9569
vn 0.0980 -0.0000 0.9952
vn -0.0980 -0.0000 0.9952
vn -0.2903 -0.0000 0.9569
vn -0.4714 -0.0000 0.8819
vn -0.6344 -0.0000 0.7730
vn -0.7730 -0.0000 0.6344
vn -0.8819 -0.0000 0.4714
vn -0.9569 -0.0000 0.2903
vn -0.9952 -0.0000 0.0980
vn -0.9952 -0.0000 -0.0980
vn -0.9569 -0.0000 -0.2903
vn -0.8819 -0.0000 -0.4714
vn -0.7730 -0.0000 -0.6344
vn -0.6344 -0.0000 -0.7730
vn -0.4714 -0.0000 -0.8819
vn -0.2903 -0.0000 -0.9569
vn -0.0980 -0.0000 -0.9952
vt 0.000000 0.000000
vt 0.375000 1.000000
vt 0.625000 1.000000
vt 0.875000 0.500000
vt 0.375000 0.250000
vt 0.625000 0.250000
vt 0.625000 0.500000
vt 0.375000 0.500000
vt 0.625000 0.750000
vt 0.375000 0.750000
vt 0.125000 0.500000
vt 0.125000 0.750000
vt 0.875000 0.750000
vt 1.000000 0.500000
vt 1.000000 1.000000
vt 0.968750 1.000000
vt 0.968750 0.500000
vt 0.937500 1.000000
vt 0.937500 0.500000
vt 0.906250 1.000000
vt 0.906250 0.500000
vt 0.875000 1.000000
vt 0.843750 1.000000
vt 0.843750 0.500000
vt 0.812500 1.000000
vt 0.812500 0.500000
vt 0.781250 1.000000
vt 0.781250 0.500000
vt 0.750000 1.000000
vt 0.750000 0.500000
vt 0.718750 1.000000
vt 0.718750 0.500000
vt 0.687500 1.000000
vt 0.687500 0.500000
vt 0.656250 1.000000
vt 0.656250 0.500000
vt 0.593750 1.000000
vt 0.593750 0.500000
vt 0.562500 1.000000
vt 0.562500 0.500000
vt 0.531250 1.000000
vt 0.531250 0.500000
vt 0.500000 1.000000
vt 0.500000 0.500000
vt 0.468750 1.000000
vt 0.468750 0.500000
vt 0.437500 1.000000
vt 0.437500 0.500000
vt 0.406250 1.000000
vt 0.406250 0.500000
vt 0.343750 1.000000
vt 0.343750 0.500000
vt 0.312500 1.000000
vt 0.312500 0.500000
vt 0.281250 1.000000
vt 0.281250 0.500000
vt 0.250000 1.000000
vt 0.250000 0.500000
vt 0.218750 1.000000
vt 0.218750 0.500000
vt 0.187500 1.000000
vt 0.187500 0.500000
vt 0.156250 1.000000
vt 0.156250 0.500000
vt 0.125000 1.000000
vt 0.093750 1.000000
vt 0.093750 0.500000
vt 0.062500 1.000000
vt 0.062500 0.500000
vt 0.296822 0.485388
vt 0.250000 0.490000
vt 0.203178 0.485388
vt 0.158156 0.471731
vt 0.116663 0.449553
vt 0.080294 0.419706
vt 0.050447 0.383337
vt 0.028269 0.341844
vt 0.014612 0.296822
vt 0.010000 0.250000
vt 0.014612 0.203178
vt 0.028269 0.158156
vt 0.050447 0.116663
vt 0.080294 0.080294
vt 0.116663 0.050447
vt 0.158156 0.028269
vt 0.203178 0.014612
vt 0.250000 0.010000
vt 0.296822 0.014612
vt 0.341844 0.028269
vt 0.383337 0.050447
vt 0.419706 0.080294
vt 0.449553 0.116663
vt 0.471731 0.158156
vt 0.485388 0.203178
vt 0.490000 0.250000
vt 0.485388 0.296822
vt 0.471731 0.341844
vt 0.449553 0.383337
vt 0.419706 0.419706
vt 0.383337 0.449553
vt 0.341844 0.471731
vt 0.031250 1.000000
vt 0.031250 0.500000
vt 0.000000 1.000000
vt 0.000000 0.500000
vt 0.750000 0.490000
vt 0.796822 0.485388
vt 0.841844 0.471731
vt 0.883337 0.449553
vt 0.919706 0.419706
vt 0.949553 0.383337
vt 0.971731 0.341844
vt 0.985388 0.296822
vt 0.990000 0.250000
vt 0.985388 0.203178
vt 0.971731 0.158156
vt 0.949553 0.116663
vt 0.919706 0.080294
vt 0.883337 0.050447
vt 0.841844 0.028269
vt 0.796822 0.014612
vt 0.750000 0.010000
vt 0.703178 0.014612
vt 0.658156 0.028269
vt 0.616663 0.050447
vt 0.580294 0.080294
vt 0.550447 0.116663
vt 0.528269 0.158156
vt 0.514612 0.203178
vt 0.510000 0.250000
vt 0.514612 0.296822
vt 0.528269 0.341844
vt 0.550447 0.383337
vt 0.580294 0.419706
vt 0.616663 0.449553
vt 0.658156 0.471731
vt 0.703178 0.485388
s 0
f 1/1/1 2/1/1 3/1/1
f 4/1/2 5/1/2 6/1/2
f 7/1/3 8/1/3 9/1/3
f 10/1/4 11/1/4 12/1/4
f 13/1/5 14/1/5 15/1/5
f 16/1/6 17/1/6 18/1/6
f 19/1/7 20/1/7 21/1/7
f 22/1/8 23/1/8 24/1/8
f 25/1/9 26/1/9 27/1/9
f 28/1/10 29/1/10 30/1/10
f 31/1/11 32/1/11 33/1/11
f 34/1/12 35/1/12 36/1/12
f 37/1/13 38/1/13 39/1/13
f 40/1/14 41/1/14 42/1/14
f 43/1/15 44/1/15 45/1/15
f 46/1/16 47/1/16 48/1/16
f 49/1/17 50/1/17 51/1/17
f 52/1/18 53/1/18 54/1/18
f 55/1/19 56/1/19 57/1/19
f 58/1/20 59/1/20 60/1/20
f 61/1/21 62/1/21 63/1/21
f 64/1/22 65/1/22 66/1/22
f 67/1/23 68/1/23 69/1/23
f 70/1/24 71/1/24 72/1/24
f 73/1/25 74/1/25 75/1/25
f 76/1/26 77/1/26 78/1/26
f 79/1/27 80/1/27 81/1/27
f 82/2/28 83/3/28 85/4/28 84/5/28
f 84/5/29 85/6/29 89/7/29 88/8/29
f 88/8/30 89/7/30 87/9/30 86/10/30
f 86/10/31 87/9/31 83/3/31 82/2/31
f 84/11/32 88/8/32 86/10/32 82/12/32
f 89/7/33 85/4/33 83/13/33 87/9/33
f 84/5/28 83/3/28 85/4/28
f 83/1/28 84/1/28 82/1/28
f 90/14/34 91/15/34 93/16/34 92/17/34
f 92/17/35 93/16/35 95/18/35 94/19/35
f 94/19/36 95/18/36 97/20/36 96/21/36
f 96/21/37 97/20/37 99/22/37 98/4/37
f 98/4/38 99/22/38 101/23/38 100/24/38
f 100/24/39 101/23/39 103/25/39 102/26/39
f 102/26/40 103/25/40 105/27/40 104/28/40
f 104/28/41 105/27/41 107/29/41 106/30/41
f 106/30/42 107/29/42 109/31/42 108/32/42
f 108/32/43 109/31/43 111/33/43 110/34/43
f 110/34/44 111/33/44 113/35/44 112/36/44
f 112/36/45 113/35/45 115/3/45 114/7/45
f 114/7/46 115/3/46 117/37/46 116/38/46
f 116/38/47 117/37/47 119/39/47 118/40/47
f 118/40/48 119/39/48 121/41/48 120/42/48
f 120/42/49 121/41/49 123/43/49 122/44/49
f 122/44/50 123/43/50 125/45/50 124/46/50
f 124/46/51 125/45/51 127/47/51 126/48/51
f 126/48/52 127/47/52 129/49/52 128/50/52
f 128/50/53 129/49/53 131/2/53 130/8/53
f 130/8/54 131/2/54 133/51/54 132/52/54
f 132/52/55 133/51/55 135/53/55 134/54/55
f 134/54/56 135/53/56 137/55/56 136/56/56
f 136/56/57 137/55/57 139/57/57 138/58/57
f 138/58/58 139/57/58 141/59/58 140/60/58
f 140/60/59 141/59/59 143/61/59 142/62/59
f 142/62/60 143/61/60 145/63/60 144/64/60
f 144/64/61 145/63/61 147/65/61 146/11/61
f 146/11/62 147/65/62 149/66/62 148/67/62
f 148/67/63 149/66/63 151/68/63 150/69/63
f 93/70/33 91/71/33 153/72/33 151/73/33 149/74/33 147/75/33 145/76/33 143/77/33 141/78/33 139/79/33 137/80/33 135/81/33 133/82/33 131/83/33 129/84/33 127/85/33 125/86/33 123/87/33 121/88/33 119/89/33 117/90/33 115/91/33 113/92/33 111/93/33 109/94/33 107/95/33 105/96/33 103/97/33 101/98/33 99/99/33 97/100/33 95/101/33
f 150/69/64 151/68/64 153/102/64 152/103/64
f 152/103/65 153/102/65 91/104/65 90/105/65
f 90/106/32 92/107/32 94/108/32 96/109/32 98/110/32 100/111/32 102/112/32 104/113/32 106/114/32 108/115/32 110/116/32 112/117/32 114/118/32 116/119/32 118/120/32 120/121/32 122/122/32 124/123/32 126/124/32 128/125/32 130/126/32 132/127/32 134/128/32 136/129/32 138/130/32 140/131/32 142/132/32 144/133/32 146/134/32 148/135/32 150/136/32 152/137/32
f 217/106/32 215/107/32 213/108/32 211/109/32 209/110/32 207/111/32 205/112/32 203/113/32 201/114/32 199/115/32 197/116/32 195/117/32 193/118/32 191/119/32 189/120/32 187/121/32 185/122/32 183/123/32 181/124/32 179/125/32 177/126/32 175/127/32 173/128/32 171/129/32 169/130/32 167/131/32 165/132/32 163/133/32 161/134/32 159/135/32 157/136/32 155/137/32
f 155/103/65 154/102/65 216/104/65 217/105/65
f 157/69/64 156/68/64 154/102/64 155/103/64
f 214/70/33 216/71/33 154/72/33 156/73/33 158/74/33 160/75/33 162/76/33 164/77/33 166/78/33 168/79/33 170/80/33 172/81/33 174/82/33 176/83/33 178/84/33 180/85/33 182/86/33 184/87/33 186/88/33 188/89/33 190/90/33 192/91/33 194/92/33 196/93/33 198/94/33 200/95/33 202/96/33 204/97/33 206/98/33 208/99/33 210/100/33 212/101/33
f 159/67/63 158/66/63 156/68/63 157/69/63
f 161/11/62 160/65/62 158/66/62 159/67/62
f 163/64/61 162/63/61 160/65/61 161/11/61
f 165/62/60 164/61/60 162/63/60 163/64/60
f 167/60/59 166/59/59 164/61/59 165/62/59
f 169/58/58 168/57/58 166/59/58 167/60/58
f 171/56/57 170/55/57 168/57/57 169/58/57
f 173/54/56 172/53/56 170/55/56 171/56/56
f 175/52/55 174/51/55 172/53/55 173/54/55
f 177/8/54 176/2/54 174/51/54 175/52/54
f 179/50/53 178/49/53 176/2/53 177/8/53
f 181/48/52 180/47/52 178/49/52 179/50/52
f 183/46/51 182/45/51 180/47/51 181/48/51
f 185/44/50 184/43/50 182/45/50 183/46/50
f 187/42/49 186/41/49 184/43/49 185/44/49
f 189/40/48 188/39/48 186/41/48 187/42/48
f 191/38/47 190/37/47 188/39/47 189/40/47
f 193/7/46 192/3/46 190/37/46 191/38/46
f 195/36/45 194/35/45 192/3/45 193/7/45
f 197/34/44 196/33/44 194/35/44 195/36/44
f 199/32/43 198/31/43 196/33/43 197/34/43
f 201/30/42 200/29/42 198/31/42 199/32/42
f 203/28/41 202/27/41 200/29/41 201/30/41
f 205/26/40 204/25/40 202/27/40 203/28/40
f 207/24/39 206/23/39 204/25/39 205/26/39
f 209/4/38 208/22/38 206/23/38 207/24/38
f 211/21/37 210/20/37 208/22/37 209/4/37
f 213/19/36 212/18/36 210/20/36 211/21/36
f 215/17/35 214/16/35 212/18/35 213/19/35
f 217/14/34 216/15/34 214/16/34 215/17/34
f 218/14/34 219/15/34 221/16/34 220/17/34
f 220/17/35 221/16/35 223/18/35 222/19/35
f 222/19/36 223/18/36 225/20/36 224/21/36
f 224/21/37 225/20/37 227/22/37 226/4/37
f 226/4/38 227/22/38 229/23/38 228/24/38
f 228/24/39 229/23/39 231/25/39 230/26/39
f 230/26/40 231/25/40 233/27/40 232/28/40
f 232/28/41 233/27/41 235/29/41 234/30/41
f 234/30/42 235/29/42 237/31/42 236/32/42
f 236/32/43 237/31/43 239/33/43 238/34/43
f 238/34/44 239/33/44 241/35/44 240/36/44
f 240/36/45 241/35/45 243/3/45 242/7/45
f 242/7/46 243/3/46 245/37/46 244/38/46
f 244/38/47 245/37/47 247/39/47 246/40/47
f 246/40/48 247/39/48 249/41/48 248/42/48
f 248/42/49 249/41/49 251/43/49 250/44/49
f 250/44/50 251/43/50 253/45/50 252/46/50
f 252/46/51 253/45/51 255/47/51 254/48/51
f 254/48/52 255/47/52 257/49/52 256/50/52
f 256/50/53 257/49/53 259/2/53 258/8/53
f 258/8/54 259/2/54 261/51/54 260/52/54
f 260/52/55 261/51/55 263/53/55 262/54/55
f 262/54/56 263/53/56 265/55/56 264/56/56
f 264/56/57 265/55/57 267/57/57 266/58/57
f 266/58/58 267/57/58 269/59/58 268/60/58
f 268/60/59 269/59/59 271/61/59 270/62/59
f 270/62/60 271/61/60 273/63/60 272/64/60
f 272/64/61 273/63/61 275/65/61 274/11/61
f 274/11/62 275/65/62 277/66/62 276/67/62
f 276/67/63 277/66/63 279/68/63 278/69/63
f 221/70/33 219/71/33 281/72/33 279/73/33 277/74/33 275/75/33 273/76/33 271/77/33 269/78/33 267/79/33 265/80/33 263/81/33 261/82/33 259/83/33 257/84/33 255/85/33 253/86/33 251/87/33 249/88/33 247/89/33 245/90/33 243/91/33 241/92/33 239/93/33 237/94/33 235/95/33 233/96/33 231/97/33 229/98/33 227/99/33 225/100/33 223/101/33
f 278/69/64 279/68/64 281/102/64 280/103/64
f 280/103/65 281/102/65 219/104/65 218/105/65
f 218/106/32 220/107/32 222/108/32 224/109/32 226/110/32 228/111/32 230/112/32 232/113/32 234/114/32 236/115/32 238/116/32 240/117/32 242/118/32 244/119/32 246/120/32 248/121/32 250/122/32 252/123/32 254/124/32 256/125/32 258/126/32 260/127/32 262/128/32 264/129/32 266/130/32 268/131/32 270/132/32 272/133/32 274/134/32 276/135/32 278/136/32 280/137/32
f 345/106/32 343/107/32 341/108/32 339/109/32 337/110/32 335/111/32 333/112/32 331/113/32 329/114/32 327/115/32 325/116/32 323/117/32 321/118/32 319/119/32 317/120/32 315/121/32 313/122/32 311/123/32 309/124/32 307/125/32 305/126/32 303/127/32 301/128/32 299/129/32 297/130/32 295/131/32 293/132/32 291/133/32 289/134/32 287/135/32 285/136/32 283/137/32
f 283/103/65 282/102/65 344/104/65 345/105/65
f 285/69/64 284/68/64 282/102/64 283/103/64
f 342/70/33 344/71/33 282/72/33 284/73/33 286/74/33 288/75/33 290/76/33 292/77/33 294/78/33 296/79/33 298/80/33 300/81/33 302/82/33 304/83/33 306/84/33 308/85/33 310/86/33 312/87/33 314/88/33 316/89/33 318/90/33 320/91/33 322/92/33 324/93/33 326/94/33 328/95/33 330/96/33 332/97/33 334/98/33 336/99/33 338/100/33 340/101/33
f 287/67/63 286/66/63 284/68/63 285/69/63
f 289/11/62 288/65/62 286/66/62 287/67/62
f 291/64/61 290/63/61 288/65/61 289/11/61
f 293/62/60 292/61/60 290/63/60 291/64/60
f 295/60/59 294/59/59 292/61/59 293/62/59
f 297/58/58 296/57/58 294/59/58 295/60/58
f 299/56/57 298/55/57 296/57/57 297/58/57
f 301/54/56 300/53/56 298/55/56 299/56/56
f 303/52/55 302/51/55 300/53/55 301/54/55
f 305/8/54 304/2/54 302/51/54 303/52/54
f 307/50/53 306/49/53 304/2/53 305/8/53
f 309/48/52 308/47/52 306/49/52 307/50/52
f 311/46/51 310/45/51 308/47/51 309/48/51
f 313/44/50 312/43/50 310/45/50 311/46/50
f 315/42/49 314/41/49 312/43/49 313/44/49
f 317/40/48 316/39/48 314/41/48 315/42/48
f 319/38/47 318/37/47 316/39/47 317/40/47
f 321/7/46 320/3/46 318/37/46 319/38/46
f 323/36/45 322/35/45 320/3/45 321/7/45
f 325/34/44 324/33/44 322/35/44 323/36/44
f 327/32/43 326/31/43 324/33/43 325/34/43
f 329/30/42 328/29/42 326/31/42 327/32/42
f 331/28/41 330/27/41 328/29/41 329/30/41
f 333/26/40 332/25/40 330/27/40 331/28/40
f 335/24/39 334/23/39 332/25/39 333/26/39
f 337/4/38 336/22/38 334/23/38 335/24/38
f 339/21/37 338/20/37 336/22/37 337/4/37
f 341/19/36 340/18/36 338/20/36 339/21/36
f 343/17/35 342/16/35 340/18/35 341/19/35
f 345/14/34 344/15/34 342/16/34 343/17/34
