# Unity3D Mesh Exporter
v -0.9482369 -0.09272335 0.2079606
v -0.866411 -0.06501703 -0.371516
v -0.8753711 0.9881824 -0.3562269
v -1.029318 0.3817272 0.7752048
v -0.9624325 0.9861239 0.2751552
v -0.9561017 0.3858243 0.2574082
v -0.9605588 0.3752966 0.5117087
v -0.9631072 0.9809831 0.5275584
v -1.029318 0.3817272 0.7752048
v -0.9932288 0.370578 0.7824032
v -0.9615301 0.3792066 0.5147758
v -0.96422 0.9804819 0.5255321
v -1.11975 0.9640559 1.46142
v -1.050774 0.9807775 0.8942081
v -1.046641 -0.08747847 0.8765809
v 0.9798505 0.5575333 -0.1358983
v -0.846018 1.043952 -0.3288112
v -1.060786 1.020603 1.475682
v 0.9828743 0.344591 -0.1947644
v -0.8671539 0.3379847 -0.397565
v -0.8709496 1.005119 -0.3835979
v -0.1551189 0.7919993 -0.316089
v -0.02863824 0.7090608 -0.3048478
v 0.111912 0.7220975 -0.2883187
v 0.2081057 0.696844 -0.2787683
v 0.3195291 0.6634385 -0.2675738
v 0.2130561 0.6472191 -0.2778293
v 0.1894951 0.7297908 0.6050159
v 0.2065552 0.7219925 0.7396642
v 0.01119539 0.7714078 0.7342861
v 0.2588019 0.7093468 0.7099678
v 0.3774365 0.6800256 0.6642122
v 0.3624406 0.6811787 0.7580271
v 0.5483495 0.644819 0.4121963
v 0.3838494 0.6834797 0.4991929
v 0.4835652 0.6575083 0.5093587
v 0.8327658 -0.1146572 1.61897
v 0.8395115 0.4319338 1.620568
v 1.006424 0.4627059 -0.1673586
v -0.5058016 0.3240436 1.570648
v -0.4474136 0.3202203 1.10757
v 0.8653561 0.3452681 1.208976
v -0.885643 0.9344575 1.461084
v -1.064788 0.7576451 1.442362
v -1.064572 0.9350622 1.44223
v -0.6936135 0.6016703 1.549816
v -0.6856545 0.7781401 1.555964
v -0.9244692 0.5929729 1.528653
v 0.7899978 0.5001463 1.669032
v -1.039084 0.3332258 1.522896
v -1.05891 0.9605129 1.526939
v 0.9382019 0.04299615 -0.136684
v 0.819572 0.03126389 1.185855
v -1.013704 0.01256809 1.024186
v 0.8205178 -0.1141668 1.203699
v 0.836077 -0.1087816 1.62394
v 0.07645567 -0.1230984 1.559631
v -0.4287693 -0.01009379 1.106914
v -0.4353383 0.3265719 1.096828
v 0.09724861 0.3378954 1.138798
v 0.09582885 0.3367006 1.144067
v 0.09927757 0.004709758 1.159134
v -0.4286852 -0.007295884 1.105572
v -0.9281065 0.9936247 0.3080913
v -0.8887277 0.9881226 0.3591565
v -0.8652971 0.9857822 0.2539888
v -0.9759499 1.007549 0.741265
v -0.9699534 1.018725 0.7400234
v -0.9419258 1.021701 0.4258428
v -0.5570773 0.3310906 1.565072
v -0.5359055 0.3237231 1.487043
v -1.107217 0.3233669 1.448423
v -0.5006005 0.3290084 1.570482
v -0.4590504 0.3216454 1.122045
v -0.5573803 0.3306139 1.566525
v -0.9085904 0.3260205 -0.3506648
v 0.95577 0.2940559 -0.1815973
v 0.9561245 0.3361807 -0.1855014
v -0.9046376 0.2835597 -0.3500951
v -0.9085904 0.3260205 -0.3506648
v 0.95577 0.2940559 -0.1815973
v -0.3514625 0.8455058 -0.2486558
v -0.3580522 0.8261539 -0.2494776
v -0.3473397 0.8183049 -0.3283374
v -0.5943441 0.9115961 -0.2744738
v -0.6045534 0.8870333 -0.2710209
v -0.6012724 0.8647438 -0.3543252
v -0.08643579 0.7698383 0.8651634
v -0.09180911 0.7686793 0.9100626
v -0.1315713 0.7754611 0.8675473
v -0.08485744 0.7711565 0.8678458
v -0.09127632 0.7687503 0.910633
v -0.1299447 0.7780616 0.8629751
v -0.7739713 0.9815738 -0.1394498
v -0.003902772 0.7849535 -0.07256445
v -0.09087176 0.7694596 0.9114369
v -0.8565267 0.9687718 0.8446758
v -0.08595738 0.7687017 0.9166574
v -0.7739713 0.9815738 -0.1394498
v -1.010626 0.3727477 0.8107216
v -0.9621645 0.3776124 0.286277
v -0.9666952 0.4225594 0.02749383
v -0.1828419 0.2030014 0.2668888
v -0.1796048 0.1958682 0.274447
v -0.1733102 0.1905236 0.2814119
vn 0.9901145 0.006389398 0.1401163
vn 0.9901145 0.006389398 0.1401163
vn 0.9901145 0.006389398 0.1401163
vn -0.9901239 -0.006301521 -0.1400538
vn -0.9901239 -0.006301521 -0.1400538
vn -0.9901239 -0.006301521 -0.1400538
vn 0.9675798 -0.00253773 0.2525528
vn 0.9675798 -0.00253773 0.2525528
vn 0.9675798 -0.00253773 0.2525528
vn 0.993047 0.002337185 0.1176952
vn 0.993047 0.002337185 0.1176952
vn 0.993047 0.002337185 0.1176952
vn -0.9926789 -0.001848349 -0.1207686
vn -0.9926789 -0.001848349 -0.1207686
vn -0.9926789 -0.001848349 -0.1207686
vn 0.2529852 0.966531 0.04261649
vn 0.2529852 0.966531 0.04261649
vn 0.2529852 0.966531 0.04261649
vn 0.1088669 0.02142621 -0.9938254
vn 0.1088669 0.02142621 -0.9938254
vn 0.1088669 0.02142621 -0.9938254
vn -0.1132261 -0.03810245 0.9928383
vn -0.1132261 -0.03810245 0.9928383
vn -0.1132261 -0.03810245 0.9928383
vn 0.09725057 -0.009130327 -0.9952181
vn 0.09725057 -0.009130327 -0.9952181
vn 0.09725057 -0.009130327 -0.9952181
vn -0.2444934 -0.9693245 -0.02516199
vn -0.2444934 -0.9693245 -0.02516199
vn -0.2444934 -0.9693245 -0.02516199
vn -0.2500313 -0.9678308 -0.02806968
vn -0.2500313 -0.9678308 -0.02806968
vn -0.2500313 -0.9678308 -0.02806968
vn 0.2481262 0.9679412 0.03902955
vn 0.2481262 0.9679412 0.03902955
vn 0.2481262 0.9679412 0.03902955
vn -0.9956121 0.01255829 -0.09272951
vn -0.9956121 0.01255829 -0.09272951
vn -0.9956121 0.01255829 -0.09272951
vn 0.01826036 -0.9997775 0.01055686
vn 0.01826036 -0.9997775 0.01055686
vn 0.01826036 -0.9997775 0.01055686
vn 0.1047895 -0.0008684191 -0.9944941
vn 0.1047895 -0.0008684191 -0.9944941
vn 0.1047895 -0.0008684191 -0.9944941
vn -0.0901041 -0.03061346 0.9954617
vn -0.0901041 -0.03061346 0.9954617
vn -0.0901041 -0.03061346 0.9954617
vn 0.07883047 0.008916453 -0.9968482
vn 0.07883047 0.008916453 -0.9968482
vn 0.07883047 0.008916453 -0.9968482
vn 0.01089317 -0.9999096 -0.007893113
vn 0.01089317 -0.9999096 -0.007893113
vn 0.01089317 -0.9999096 -0.007893113
vn 0.01781411 -0.9997674 0.01215182
vn 0.01781411 -0.9997674 0.01215182
vn 0.01781411 -0.9997674 0.01215182
vn 0.0791274 -0.02830843 -0.9964625
vn 0.0791274 -0.02830843 -0.9964625
vn 0.0791274 -0.02830843 -0.9964625
vn 0.1018253 -0.04404437 -0.9938268
vn 0.1018253 -0.04404437 -0.9938268
vn 0.1018253 -0.04404437 -0.9938268
vn 0.1296854 0.9915317 0.006827641
vn 0.1296854 0.9915317 0.006827641
vn 0.1296854 0.9915317 0.006827641
vn -0.8821537 0.4650652 -0.07429071
vn -0.8821537 0.4650652 -0.07429071
vn -0.8821537 0.4650652 -0.07429071
vn 0.005631257 0.9956981 -0.09248575
vn 0.005631257 0.9956981 -0.09248575
vn 0.005631257 0.9956981 -0.09248575
vn 0.02921578 0.9994792 -0.01370376
vn 0.02921578 0.9994792 -0.01370376
vn 0.02921578 0.9994792 -0.01370376
vn -0.08834898 0.09265871 0.9917706
vn -0.08834898 0.09265871 0.9917706
vn -0.08834898 0.09265871 0.9917706
vn 0.09022779 -0.004963343 -0.9959088
vn 0.09022779 -0.004963343 -0.9959088
vn 0.09022779 -0.004963343 -0.9959088
vn 0.9325082 -0.324289 0.1589503
vn 0.9325082 -0.324289 0.1589503
vn 0.9325082 -0.324289 0.1589503
vn 0.9216373 -0.3642682 0.1337659
vn 0.9216373 -0.3642682 0.1337659
vn 0.9216373 -0.3642682 0.1337659
vn -0.1256323 -0.9912448 -0.04062278
vn -0.1256323 -0.9912448 -0.04062278
vn -0.1256323 -0.9912448 -0.04062278
vn -0.1428119 -0.9867565 -0.07691705
vn -0.1428119 -0.9867565 -0.07691705
vn -0.1428119 -0.9867565 -0.07691705
vn -0.2442183 -0.9690202 -0.03684271
vn -0.2442183 -0.9690202 -0.03684271
vn -0.2442183 -0.9690202 -0.03684271
vn 0.2482408 0.9681218 0.03341807
vn 0.2482408 0.9681218 0.03341807
vn 0.2482408 0.9681218 0.03341807
vn 0.8285551 0.5539145 0.08170117
vn 0.8285551 0.5539145 0.08170117
vn 0.8285551 0.5539145 0.08170117
vn -0.241848 0.6518345 0.7187638
vn -0.241848 0.6518345 0.7187638
vn -0.241848 0.6518345 0.7187638
f 1/1/1 2/2/2 3/3/3
f 4/4/4 5/5/5 6/6/6
f 7/7/7 8/8/8 9/9/9
f 10/10/10 11/11/11 12/12/12
f 13/13/13 14/14/14 15/15/15
f 16/16/16 17/17/17 18/18/18
f 19/19/19 20/20/20 21/21/21
f 22/22/22 23/23/23 24/24/24
f 25/25/25 26/26/26 27/27/27
f 28/28/28 29/29/29 30/30/30
f 31/31/31 32/32/32 33/33/33
f 34/34/34 35/35/35 36/36/36
f 37/37/37 38/38/38 39/39/39
f 40/40/40 41/41/41 42/42/42
f 43/43/43 44/44/44 45/45/45
f 46/46/46 47/47/47 48/48/48
f 49/49/49 50/50/50 51/51/51
f 52/52/52 53/53/53 54/54/54
f 55/55/55 56/56/56 57/57/57
f 58/58/58 59/59/59 60/60/60
f 61/61/61 62/62/62 63/63/63
f 64/64/64 65/65/65 66/66/66
f 67/67/67 68/68/68 69/69/69
f 70/70/70 71/71/71 72/72/72
f 73/73/73 74/74/74 75/75/75
f 76/76/76 77/77/77 78/78/78
f 79/79/79 80/80/80 81/81/81
f 82/82/82 83/83/83 84/84/84
f 85/85/85 86/86/86 87/87/87
f 88/88/88 89/89/89 90/90/90
f 91/91/91 92/92/92 93/93/93
f 94/94/94 95/95/95 96/96/96
f 97/97/97 98/98/98 99/99/99
f 100/100/100 101/101/101 102/102/102
f 103/103/103 104/104/104 105/105/105
